<?xml version="1.0" encoding="iso-8859-1"?>
<!-- Generator: Adobe Illustrator 18.0.0, SVG Export Plug-In . SVG Version: 6.00 Build 0)  -->
<!DOCTYPE svg PUBLIC "-//W3C//DTD SVG 1.1//EN" "http://www.w3.org/Graphics/SVG/1.1/DTD/svg11.dtd">
<svg version="1.1" id="Capa_1" xmlns="http://www.w3.org/2000/svg" xmlns:xlink="http://www.w3.org/1999/xlink" x="0px" y="0px"
	 viewBox="0 0 296.999 296.999" style="enable-background:new 0 0 296.999 296.999;" xml:space="preserve">
<path d="M195.407,250.863l89.492,20.008c0.718,0.162,1.444,0.24,2.167,0.24c2.325,0,4.602-0.816,6.414-2.349
	c2.372-2.006,3.669-5.007,3.505-8.11l-5.189-97.833l5.19-106.024c0.236-4.828-3.037-9.125-7.754-10.18l-91.633-20.487
	c-0.019-0.003-0.036-0.003-0.054-0.007c-1.355-0.295-2.789-0.32-4.23-0.004l-91.725,20.019L12.1,26.128
	c-3.056-0.683-6.255,0.114-8.633,2.153c-2.378,2.039-3.654,5.08-3.444,8.204l6.658,99.468l-6.654,91.727
	c-0.323,4.45,2.359,8.57,6.56,10.072l91.633,32.779c1.087,0.389,2.219,0.58,3.345,0.58c0.698,0,1.389-0.1,2.072-0.244
	L195.407,250.863z M175.217,234.937l-28.548-28.547c-1.491-1.49-3.512-2.328-5.62-2.328h-25.584l2.2-31.865l63.277-13.594
	l4.106,74.188L175.217,234.937z M114.368,219.956h23.39l19.008,19.009l-44.379,9.686L114.368,219.956z M62.038,188.236
	l-38.132-15.162l1.737-23.945l72.174,22.112l-2.267,32.821H67.048v-8.442C67.048,192.364,65.062,189.437,62.038,188.236z
	 M67.048,97.282V58.769l25.067,5.606l5.35,85.98l-61.389-18.809l28.645-28.645C66.211,101.411,67.048,99.39,67.048,97.282z
	 M182.871,91.351l-4.98-1.244l-12.506-12.506V52.546l19.517-4.259L182.871,91.351z M151.819,86.512l16.39,16.39
	c1.019,1.018,2.295,1.74,3.692,2.089l10.206,2.552l-1.452,30.803l-63.188,13.573l-5.458-87.723l37.483-8.182v24.878
	C149.492,83.001,150.329,85.021,151.819,86.512z M200.551,138.209l1.214-25.751l32.715,8.178l17.893,26.842L200.551,138.209z
	 M272.577,149.132l-26.579-39.868c-1.096-1.646-2.767-2.822-4.684-3.302l-38.786-9.696l2.271-48.173l71.936,16.084L272.577,149.132z
	 M51.155,55.216v38.774L25.5,119.645l-4.769-71.231L51.155,55.216z M22.699,189.699l28.456,11.313v10.998
	c0,4.389,3.558,7.946,7.946,7.946h35.352l-1.895,27.45l-72.174-25.818L22.699,189.699z M204.936,232.636l-4.106-74.197
	l71.518,12.792l4.105,77.396L204.936,232.636z"/>
<g>
</g>
<g>
</g>
<g>
</g>
<g>
</g>
<g>
</g>
<g>
</g>
<g>
</g>
<g>
</g>
<g>
</g>
<g>
</g>
<g>
</g>
<g>
</g>
<g>
</g>
<g>
</g>
<g>
</g>
</svg>
