<?xml version="1.0" encoding="UTF-8" standalone="no"?>
<svg
   xmlns:dc="http://purl.org/dc/elements/1.1/"
   xmlns:cc="http://creativecommons.org/ns#"
   xmlns:rdf="http://www.w3.org/1999/02/22-rdf-syntax-ns#"
   xmlns:svg="http://www.w3.org/2000/svg"
   xmlns="http://www.w3.org/2000/svg"
   xmlns:sodipodi="http://sodipodi.sourceforge.net/DTD/sodipodi-0.dtd"
   xmlns:inkscape="http://www.inkscape.org/namespaces/inkscape"
   inkscape:version="1.1-dev (bc69992, 2020-04-15)"
   sodipodi:docname="menu.svg"
   xml:space="preserve"
   style="enable-background:new 0 0 480 480;"
   viewBox="0 0 480 480"
   y="0px"
   x="0px"
   id="Capa_1"
   version="1.1"><metadata
   id="metadata61"><rdf:RDF><cc:Work
       rdf:about=""><dc:format>image/svg+xml</dc:format><dc:type
         rdf:resource="http://purl.org/dc/dcmitype/StillImage" /></cc:Work></rdf:RDF></metadata><defs
   id="defs59" /><sodipodi:namedview
   inkscape:current-layer="g20"
   inkscape:window-maximized="0"
   inkscape:window-y="23"
   inkscape:window-x="0"
   inkscape:cy="251.7796"
   inkscape:cx="163.09655"
   inkscape:zoom="1.7252867"
   showgrid="false"
   id="namedview57"
   inkscape:window-height="808"
   inkscape:window-width="1276"
   inkscape:pageshadow="2"
   inkscape:pageopacity="0"
   guidetolerance="10"
   gridtolerance="10"
   objecttolerance="10"
   borderopacity="1"
   bordercolor="#666666"
   pagecolor="#ffffff" />
<g
   id="g24">
	<g
   id="g22">
		<g
   id="g20">
			
			<path
   id="path12"
   d="M312,120c-26.51,0-48,21.49-48,48c0,26.51,21.49,48,48,48c26.499-0.026,47.974-21.501,48-48     C360,141.49,338.51,120,312,120z M312,200c-17.673,0-32-14.327-32-32s14.327-32,32-32c17.673,0,32,14.327,32,32     S329.673,200,312,200z" />
			<path
   id="path14"
   d="M312,264c-26.51,0-48,21.49-48,48c0,26.51,21.49,48,48,48c26.499-0.026,47.974-21.501,48-48     C360,285.49,338.51,264,312,264z M312,344c-17.673,0-32-14.327-32-32c0-17.673,14.327-32,32-32c17.673,0,32,14.327,32,32     C344,329.673,329.673,344,312,344z" />
			<path
   style="fill:#280b0b"
   id="path16"
   d="M168,120c-26.51,0-48,21.49-48,48c0,26.51,21.49,48,48,48c26.499-0.026,47.974-21.501,48-48     C216,141.49,194.51,120,168,120z M168,200c-17.673,0-32-14.327-32-32s14.327-32,32-32s32,14.327,32,32S185.673,200,168,200z" />
			<path
   id="path18"
   d="M168,264c-26.51,0-48,21.49-48,48c0,26.51,21.49,48,48,48c26.499-0.026,47.974-21.501,48-48     C216,285.49,194.51,264,168,264z M168,344c-17.673,0-32-14.327-32-32c0-17.673,14.327-32,32-32s32,14.327,32,32     C200,329.673,185.673,344,168,344z" />
		</g>
	</g>
</g>
<g
   id="g26">
</g>
<g
   id="g28">
</g>
<g
   id="g30">
</g>
<g
   id="g32">
</g>
<g
   id="g34">
</g>
<g
   id="g36">
</g>
<g
   id="g38">
</g>
<g
   id="g40">
</g>
<g
   id="g42">
</g>
<g
   id="g44">
</g>
<g
   id="g46">
</g>
<g
   id="g48">
</g>
<g
   id="g50">
</g>
<g
   id="g52">
</g>
<g
   id="g54">
</g>
</svg>
